<?xml version="1.0" encoding="utf-8"?>
<!-- Generator: Adobe Illustrator 16.0.0, SVG Export Plug-In . SVG Version: 6.00 Build 0)  -->
<!DOCTYPE svg PUBLIC "-//W3C//DTD SVG 1.1//EN" "http://www.w3.org/Graphics/SVG/1.1/DTD/svg11.dtd">
<svg version="1.1" id="Layer_1" xmlns="http://www.w3.org/2000/svg" xmlns:xlink="http://www.w3.org/1999/xlink" x="0px" y="0px"
	 width="331.678px" height="244.984px" viewBox="136.319 274.517 331.678 244.984"
	 enable-background="new 136.319 274.517 331.678 244.984" xml:space="preserve">
<path opacity="0.4" fill="#151616" enable-background="new    " d="M434.822,484.125c0,19.537-56.195,35.376-125.515,35.376
	c-69.32,0-125.516-15.839-125.516-35.376c0-19.534,56.195-35.373,125.516-35.373C378.627,448.752,434.822,464.591,434.822,484.125z"
	/>
<path fill="#A6A34D" d="M198.128,366.948c5.77,12.817,51.828,24.527,108.232,26.896c48.016,2.027,89.141-3.313,104.521-12.528
	c-0.101-0.645-0.349-1.243-0.816-1.777c3.467-3.217-3.518-8.475-6.613-9.385c0.733-8.404-11.521-11.247-17.35-11.083
	c0.81-7.172-9.819-5.697-13.11-9.595c-1.711-2.024-0.634-5.582-4.263-6.89c-3.051-1.098-7.403,0.925-9.209,3.365
	c-3.31-4.008-12.338-12.469-18.396-9.062c-1.637-2.666-4.329-4.727-7.108-5.679c0.395-0.764,0.324-1.746,0.66-2.453
	c-2.004-0.995-6.103-0.785-8.57-0.452c-1.284,0.171-3.621,1.265-4.713,1.269c-3.573,0.004-1.625-0.126-4.564-1.174
	c-2.529-0.902-5.506-3.706-8.98-2.447c-2.522,0.912-5.151,3.731-1.901,5.707c-2.064-1.428-6.646-1.075-8.323-1.491
	c-2.628-0.657-5.199-2.741-7.794-3.537c-3.341-1.022-16.369-3.903-16.685,1.002c-3.199,0.289-8.12,2.297-7.72,6.154
	c-5.533-0.915-5.941,2.754-9.575,3.863c-3.749,1.144-7.029-2.158-10.307,1.335c0.396,1.173,0.055,2.505,0.562,3.637
	c-4.451-1.814-14.371-0.089-15.851,5.409c-3.875,0.122-16.779,1.027-12.432,8.486c-2.539-0.299-6.419,3.701-8.001,5.566
	C205.397,357.352,198.454,361.626,198.128,366.948z"/>
<path fill="#164A5B" d="M429.352,377.075c-4.319,16.389-58.219,27.381-123.544,24.776c-67.704-2.695-122.03-18.97-121.327-36.346
	c0,0-13.141,133.504,116.674,139.259l-0.004,0.014c0.144,0.008,0.285,0.006,0.421,0.013c0.146,0.003,0.278,0.015,0.419,0.019v-0.011
	C422.949,509.073,429.078,393.009,429.352,377.075z"/>
<path fill="#B3B4B4" d="M195.374,373.738c-2.431-4.318-4.193-10.982-0.815-15.617c2.573-3.524,9.807-6.852,13.843-7.975
	c5.128-1.426,9.646-2.045,14.649-3.889c5.203-1.921,10.725-1.772,16.115-2c17.982-0.76,36.429-5.358,54.636-5.117
	c8.827,0.114,18.985-0.302,27.361,2.244c7.38,2.241,14.915,0.32,22.378,2.169c12.233,3.025,25.418,3.731,37.308,6.938
	c5.271,1.427,10.68,2.905,15.803,4.869c5.521,2.114,12.053,2.128,17.21,5.526c4.509,2.978,6.924,7.351,6.254,13.006
	c-0.697,5.87-6.729,9.882-11.49,12.664c-6.336,3.703-13.925,4.675-20.972,6.691c-7.307,2.095-13.232,2.977-20.663,2.265
	c-14.656-1.414-28.998,2.944-43.646,3.385c-14.864,0.444-29.705,0.1-44.715-1.468c-12.858-1.346-26.38-3.635-38.51-7.357
	c-5.514-1.692-11.852-2.94-17.333-4.348c-3.061-0.783-6.461-0.888-9.319-1.991c-2.784-1.078-5.591-2.492-8.223-3.783
	c-3.459-1.693-8.499-4.3-9.677-8.004"/>
<path fill="#208299" d="M308.312,338.915c-67.695-2.697-123.137,9.212-123.831,26.592c-0.696,17.379,53.628,33.651,121.327,36.347
	c67.698,2.697,123.141-9.206,123.837-26.586C430.338,357.887,376.015,341.608,308.312,338.915z M306.067,393.908
	c-60.72-2.56-109.464-15.92-108.876-29.847c0.586-13.927,50.28-23.139,110.988-20.579c60.719,2.56,109.464,15.923,108.884,29.847
	C416.474,387.251,366.78,396.466,306.067,393.908z"/>
<path fill="#A6A34D" d="M198.128,366.948c5.77,12.817,51.828,24.527,108.232,26.896c48.016,2.027,89.141-3.313,104.521-12.528
	c-0.101-0.645-0.349-1.243-0.816-1.777c3.467-3.217-3.518-8.475-6.613-9.385c0.733-8.404-11.521-11.247-17.35-11.083
	c0.81-7.172-9.819-5.697-13.11-9.595c-1.711-2.024-0.634-5.582-4.263-6.89c-3.051-1.098-7.403,0.925-9.209,3.365
	c-3.31-4.008-12.338-12.469-18.396-9.062c-1.637-2.666-4.329-4.727-7.108-5.679c0.395-0.764,0.324-1.746,0.66-2.453
	c-2.004-0.995-6.103-0.785-8.57-0.452c-1.284,0.171-3.621,1.265-4.713,1.269c-3.573,0.004-1.625-0.126-4.564-1.174
	c-2.529-0.902-5.506-3.706-8.98-2.447c-2.522,0.912-5.151,3.731-1.901,5.707c-2.064-1.428-6.646-1.075-8.323-1.491
	c-2.628-0.657-5.199-2.741-7.794-3.537c-3.341-1.022-16.369-3.903-16.685,1.002c-3.199,0.289-8.12,2.297-7.72,6.154
	c-5.533-0.915-5.941,2.754-9.575,3.863c-3.749,1.144-7.029-2.158-10.307,1.335c0.396,1.173,0.055,2.505,0.562,3.637
	c-4.451-1.814-14.371-0.089-15.851,5.409c-3.875,0.122-16.779,1.027-12.432,8.486c-2.539-0.299-6.419,3.701-8.001,5.566
	C205.397,357.352,198.454,361.626,198.128,366.948z"/>
<path fill="#164A5B" d="M429.15,376.624c-4.267,16.4-58.122,27.587-123.46,25.207c-67.706-2.459-122.092-18.542-121.455-35.923
	c0,0-12.675,133.548,117.154,138.852l0.002,0.015c0.143,0.008,0.286,0.004,0.419,0.009c0.146,0.004,0.278,0.017,0.419,0.02
	l0.002-0.011C423.208,508.644,428.934,392.562,429.15,376.624z"/>
<path fill="#186E39" d="M293.539,312.405c-0.341,0.032,1.158-1.83,1.704-2.447c0.841-0.955,1.581-1.602,1.762-2.932
	c0.087,0.351,0.374,0.688,0.476,1.05c2.134-0.698,3.631-3.002,4.48-4.884c1.163,1.982,2.834,4.373,0.631,6.283
	c0.285-0.241,0.803-0.479,1.097-0.7c-0.378,4.036-7.651,2.353-9.963,5.388c-0.781-2.31-6.289,1.597-7.687,2.175
	c-3.212,1.325-5.143,0.681-6.808,4.295c0.469-3.842,2.417-8.217,6.577-9.005c-0.829-0.12-1.46-0.375-2.28-0.415
	c1.451-1.021,3.489-0.879,5.04-0.077c-0.141-0.271-0.074-0.962-0.175-1.243c1.207-0.043,5.447,1.732,4.953,2.676"/>
<path fill="#8D1B1D" d="M313.668,319.425c1.783,5.355,2.776,11.512,2.173,17.307c-0.599,5.75-0.324,12.607-7.355,11.212
	c-8.603-1.708-18.324-2.429-23.501-10.48c-2.147-3.322-3.856-7.473-4.25-11.339c-0.501-4.925,2.552-9.263,7.127-11.188
	C296.15,311.453,309.836,307.966,313.668,319.425z"/>
<path fill="#3F141A" d="M288.954,319.273c0.485-0.603,2.019-0.161,1.555,0.853c-0.477,1.028-1.786,0.204-1.294-0.824"/>
<path fill="#3F141A" d="M296.444,319.273c0.485-0.603,2.018-0.159,1.549,0.849c-0.475,1.03-1.783,0.209-1.278-0.82"/>
<path fill="#3F141A" d="M301.37,322.708c0.488-0.602,2.02-0.161,1.552,0.852c-0.475,1.026-1.782,0.204-1.279-0.822"/>
<path fill="#3F141A" d="M295.674,326.557c0.484-0.601,2.02-0.16,1.549,0.853c-0.472,1.025-1.782,0.203-1.279-0.824"/>
<path fill="#3F141A" d="M288.36,326.574c0.483-0.603,2.013-0.162,1.544,0.851c-0.474,1.03-1.775,0.207-1.279-0.821"/>
<path fill="#3F141A" d="M291.645,322.468c0.484-0.602,2.017-0.158,1.55,0.852c-0.476,1.029-1.789,0.206-1.29-0.823"/>
<path fill="#3F141A" d="M302.902,316.266c0.485-0.597,2.017-0.158,1.549,0.853c-0.477,1.028-1.784,0.205-1.277-0.823"/>
<path fill="#3F141A" d="M293.375,332.267c0.487-0.603,2.02-0.16,1.552,0.854c-0.473,1.027-1.78,0.202-1.288-0.825"/>
<path fill="#3F141A" d="M300.741,328.671c0.487-0.601,2.018-0.162,1.55,0.853c-0.475,1.025-1.783,0.203-1.277-0.824"/>
<path fill="#3F141A" d="M306.524,326.129c0.485-0.602,2.017-0.162,1.551,0.853c-0.477,1.026-1.783,0.204-1.29-0.825"/>
<path fill="#3F141A" d="M300.957,334.647c0.487-0.603,2.02-0.163,1.552,0.845c-0.476,1.027-1.783,0.205-1.277-0.817"/>
<path fill="#3F141A" d="M307.677,336.147c0.483-0.602,2.012-0.164,1.543,0.849c-0.473,1.031-1.772,0.209-1.281-0.821"/>
<path fill="#3F141A" d="M291.098,335.631c0.487-0.602,2.02-0.162,1.553,0.852c-0.474,1.029-1.781,0.208-1.279-0.823"/>
<path fill="#3F141A" d="M299.626,339.228c0.486-0.602,2.02-0.16,1.552,0.849c-0.476,1.029-1.786,0.207-1.282-0.819"/>
<path fill="#3F141A" d="M306.379,342.589c0.486-0.602,2.019-0.162,1.554,0.847c-0.476,1.031-1.783,0.209-1.281-0.818"/>
<path fill="#67642A" d="M248.802,350.949c1.042-0.4,2.723,3.516,3.399,4.309c1.252,1.453,3.766,1.621,5.475,2.593
	c-0.662-0.804-2.005-1.188-2.847-1.786c-0.06-0.07-0.07-0.068-0.012,0.015c2.215-0.438,4.658,0.989,6.773,1.344
	c2.234,0.372,4.071,1.718,5.803,3.13c1.958-2.352,5.523-1.327,7.744,0.086c-1.42-0.289-2.463-1.816-3.639-2.445
	c-1.504-0.803-3.51-1.499-5.092-1.981c-0.952-0.291-0.915-0.25-1.934-0.292c-0.729-0.03-1.831,0.12-2.585-0.001
	c-2.392-0.374-1.63-2.216-1.946-4.325c-0.733,0.512-1.554,1.603-2.384,1.871c-0.963,0.311-2.534-0.312-3.529-0.519
	c-2.331-0.487-3.584-1.786-5.173-3.646c0.469,0.627,0.595,1.374,0.259,2.041"/>
<path fill="#67642A" d="M333.407,388.693c-0.153,0.165-0.115,0.357-0.395,0.442c2.081-3.587,6.57-1.017,9.895-1.63
	c-1.991,1.591-4.573-0.205-6.359,1.185c-1.158,0.899-1.927,2.29-3.181,3.23c-0.062,0.062-0.056,0.069,0.019,0.012
	c-0.135-1.556-1.359-2.55,0.242-3.584"/>
<path fill="#67642A" d="M273.461,334.065c-0.187-0.06-0.338-0.062-0.478-0.205c-0.473,0.299-1.462,0.506-1.819,0.901
	c-0.789,0.883-0.311,1.044-0.577,2.094c-0.406,1.555-1.198,1.981-2.442,2.977c2.235-0.05,5.171,0.978,7.232,1.841
	c1.873,0.783,3.099,2.54,5.048,3.45c-0.651-1.15-2.566-1.735-2.907-2.817c-0.479-1.508,0.751-3.468,2.245-2.886
	c-0.203-0.482-0.644-1.825-1.047-2.215c-0.705-0.653-1.854-0.593-2.555-1.404c0.647-0.959-1.29-3.837-2.192-4.516
	c-1.718,1.594,0.943,2.209-1.835,3.185"/>
<path fill="#67642A" d="M335.267,342.003c-0.026,2.958,10.521,5.51,13.002,6.451c0.157,0.334,0.475,1.077,0.644,1.468
	c-2.371,1.01-5.249,0.21-7.656,1.162c-1.592,0.622-2.741,1.903-4.489,1.271c-0.51,3.233-4.64,2.298-6.685,3.593
	c-2.104,1.341-3.05,2.497-5.942,2.716c1.871-1.553,4.836-3.77,5.77-5.763c0.906-1.936-0.546-2.104-0.768-3.535
	c-0.252-1.667,1.666-3.196-0.877-4.172c2.477-1.965,4.676-2.125,7.293-2.188"/>
<path fill="#67642A" d="M294.403,365.438c0.942,0.769,2.876,0.716,4.045,1.151c1.748,0.665,3.428,1.448,5.305,1.129
	c-0.317,1.509-1.015,2.047-0.305,3.532c0.414,0.861,1.351,1.603,1.854,2.392c-1.088-1.019-2.941-1.798-4.47-1.942
	c-0.054-0.079-0.054-0.082,0.015-0.008c1.397,1.634,2.989,3.082,4.308,4.694c-1.969-0.635-4.093-1.735-6.052-2.279
	c-2.475-0.688-4.931-1.011-7.382-1.681c1.174-0.649,2.354-1.221,3.692-1.466c0.24-0.488,0.449-1.062,0.716-1.53
	c-0.646-0.194-1.156-0.632-1.402-1.239c0.521-0.381,1.161-0.722,1.652-1.051c-0.712-0.172-1.111-0.622-0.946-1.229"/>
<path fill="#67642A" d="M219.699,361.79c1.367,2.328,4.156,2.787,6.289,4.11c0.926,0.573,1.723,1.404,2.697,1.918
	c0.998,0.529,2.365,0.554,3.102,1.383c-1.338,0.178-2.655,0.507-4.002,0.705c1.857,0.054,3.682,0.985,5.646,1.096
	c1.824,0.102,3.554,0.531,5.38,0.606c2.016,0.085,4.151,0.112,6.206,0.12c1.798,0.009,3.632,0.226,5.438,0.156
	c0.878-0.036,1.625-0.336,2.276,0.24c-1.281,0.641-2.697,0.521-4.053,1.262c0.857,0.112,1.8,0.406,2.556,0.844
	c-0.931,1.755,9.178,4.752,11.13,5.289c3.863,1.065,8.448-0.129,12.132,1.283c-0.767,0.546-1.87,0.661-2.583,1.35
	c1.948,0.935,3.506,2.498,5.799,3.199c1.75,0.533,3.506,0.943,5.201,1.497c1.352,0.441,2.911,0.243,4.322,0.782
	c1.188,0.445,2.399,1.055,3.625,1.494c-0.209,1.556,4.119,2.332,5.245,3.256c-2.039,0.648-4.774-1.215-6.861-1.455
	c-2.91-0.344-5.77-0.835-8.586-1.27c-1.775-0.275-3.595-0.378-5.369-0.389c-1.262-0.009-3.245,0.278-4.377-0.238
	c-1.232-0.565-0.975-1.503-1.581-2.558c-1.016-1.754-2.751-2.495-4.604-3.229c0.059,0.013,0.132,0.021,0.188,0.027
	c-3.023-0.517-5.65-2.006-8.748-2.167c0.197,0.414,0.024,0.69,0.517,1.123c-4.45-0.837-9.49,0.04-13.902,0.2
	c-1.654,0.061-2.062-0.72-3.568-0.964c-1.563-0.252-2.583,0.796-3.584,1.659c-2.364,2.03-4.081,2.784-7.406,2.621
	c-3.188-0.156-6.743-1.272-9.998-1.968c-1.389-0.293-4.923-1.044-5.324-2.548c-0.214-0.832,0.831-2.021,1.035-2.802
	c0.3-1.152,0.208-1.733-0.003-2.902c-0.222-1.17-0.508-1.779-0.074-2.911c0.406-1.021,1.46-1.225,1.819-1.979
	c0.771-1.641-0.823-3.854-1.058-5.35c1.287,0.354,2.273,0.606,2.948-0.63c0.438-0.786,0.408-3.133,0.258-3.94
	c1.397,0.573,2.539,1.761,3.285,3.048"/>
<path fill="#67642A" d="M393.106,388.869c-7.002,2.141-13.998,3.869-21.318,4.252c-2.727,0.14-4.844-0.796-7.583-0.4
	c-6.45,0.933-12.974,2.661-19.583,2.067c1.48-0.91,2.599-1.329,2.97-3.104c-1.264-0.99-3.315-1.425-4.76-2.188
	c7.199,0.861,12.874-2.184,19.327-3.771c-0.907,1.117-2.268,1.854-3.422,2.754c1.561-0.731,4.272-1.03,6.086-1.507
	c1.934-0.509,4.201-0.291,6.242-0.695c2.207-0.44,3.492-2.246,4.998-3.92c1.108-1.236,0.832-2.28,1.754-3.331
	c2.08-2.327,6.894-2.842,9.69-3.919c0.919-0.354,1.743-0.784,2.747-0.529c-0.572,0.757-1.486,1.326-2.079,2.107
	c-0.714,0.972-0.653,1.465-1.784,2.345c2.721-0.492,5.688-1.872,8.086-3.128c1.269-0.664,2.715-0.621,4.049-1.16
	c1.204-0.493,1.482-1.676,2.429-1.941c-0.68,1.364-0.85,2.893-1.131,4.376c2.093-0.907,8.189-0.79,8.203-4.136
	c0.047,1.312,1.141,2.313,1.395,3.543c0.281,1.273-0.174,2.818-0.228,3.837c-0.028,0.727,0.396,0.542,0.072,1.454
	c-0.261,0.756-1.575,1.984-2.206,2.416c-2.073,1.416-5.158,1.604-7.561,2.402C397.365,387.401,395.257,388.209,393.106,388.869z"/>
<path fill="#208299" d="M416.265,370.053c0.55,1.087,0.844,2.175,0.8,3.273c-0.597,13.925-50.288,23.14-110.995,20.579
	c-60.721-2.561-109.467-15.92-108.877-29.846c0.251-5.891,9.302-10.932,24.243-14.603l-13.183-1.394
	c-14.69,4.589-23.504,10.588-23.771,17.438c-0.696,17.379,53.628,33.65,121.327,36.347c67.698,2.697,123.131-9.209,123.837-26.586
	c0.056-1.304-0.236-2.598-0.789-3.883L416.265,370.053L416.265,370.053z"/>
<path fill="#4B4A4A" d="M402.329,366.928c16.218-26.317,31.594-53.718,46.863-80.092c2.68-4.627,4.831-8.815,9.913-11.314
	c5.741-2.812,9.672,0.491,8.76,7.198c-0.774,5.69-6.26,11.966-9.489,16.785c-4.005,5.985-7.479,11.914-10.889,18.173
	c-10.818,19.854-24.382,38.049-35.389,57.268c-1.143,1.992-1.946,4.054-3.591,5.668c-2.354-2.147-1.596-3.955-5.666-4.239
	c0.756-1.586,0.163-2.419-0.091-3.868c-0.303-1.694-1.229-0.566-0.771-3.078c0.545-3.024,3.016-6.055,4.307-8.975"/>
<g>
	<g>
		<path fill="#A6A34D" d="M246.629,419.685c-0.206,6.378-0.315,9.603-0.548,16.116c-0.025,0.692,0.284,2.033,0.284,2.033
			c-0.049,0.038-1.688-2.491-1.633-3.97c0.212-6.42,0.316-9.589,0.504-15.865c0.007-0.448,0.045-0.932,0.186-1.248
			c0.395-0.892,1.785-2.215,3.052-2.11c1.284,0.107,2.521,2.001,2.521,2.001c-0.01,0.011-0.719-0.306-1.112-0.342
			C247.727,416.104,246.695,417.651,246.629,419.685z M244.949,438.748c0.004,0,1.579,1.302,2.598,1.625
			c0.637,0.202,1.265,0.188,1.735,0.217c1.2,0.066,2.133-0.852,2.545-2.038c0.257-0.739,0.605-1.688,0.646-2.7
			c0.295-6.819,0.431-10.197,0.698-16.894c0.048-1.274-0.743-3.53-0.743-3.53c0.033-0.027,2.22,3.146,2.127,5.283
			c-0.285,6.784-0.416,10.213-0.719,17.115c-0.131,3.035-1.829,5.58-4.959,4.576C247.03,441.804,244.949,438.748,244.949,438.748z"
			/>
		<path fill="#A6A34D" d="M260.834,439.084c-0.675-0.139-1.015-0.209-1.696-0.354c-0.438,2.41-0.67,3.613-1.114,6.011
			c-0.739-0.191-1.111-0.288-1.857-0.485c0.122-0.647,0.18-0.975,0.294-1.627c0.086,0.025,0.131,0.036,0.21,0.059
			c0.449-2.369,0.677-3.562,1.113-5.948c1.164,0.242,1.742,0.361,2.916,0.587c0.002-0.019-0.006-0.03-0.006-0.047
			C260.753,438,260.781,438.358,260.834,439.084z M259.823,424.085c0.182,3.059,0.271,4.601,0.443,7.707
			c-0.098,0.583-0.186,1.124-0.585,3.446c-0.667-0.122-1.002-0.188-1.662-0.314c0.249-1.355,0.391-2.043,0.64-3.405
			C259.117,428.555,259.352,427.069,259.823,424.085z M261.188,421.435c0.497,0.047,0.75,0.069,1.241,0.114
			c0.833,9.623,1.225,14.576,1.988,24.7c-0.762-0.165-1.126-0.251-1.875-0.418c-0.06-0.719-0.087-1.078-0.137-1.791
			c0.259,0.057,0.391,0.086,0.646,0.14C262.33,434.868,261.968,430.303,261.188,421.435z"/>
		<path fill="#A6A34D" d="M268.441,424.077c-0.542-0.046-0.814-0.068-1.362-0.114c0.033-0.7,0.058-1.048,0.085-1.747
			c0.54,0.04,0.807,0.062,1.356,0.104C268.489,423.021,268.475,423.374,268.441,424.077z M274.52,424.55
			c-1.125-0.079-1.672-0.12-2.792-0.204c-0.469,9.188-0.702,13.817-1.177,23.121c-0.728-0.13-1.1-0.197-1.825-0.336
			c0.034-0.719,0.061-1.08,0.092-1.802c0.146,0.028,0.216,0.038,0.359,0.065c0.473-9.241,0.702-13.827,1.162-22.939
			c1.114,0.079,1.671,0.115,2.791,0.191c0-0.11,0.003-0.165,0.007-0.275c0.587,0.038,0.893,0.062,1.483,0.096
			C274.589,423.299,274.562,423.715,274.52,424.55z"/>
		<path fill="#A6A34D" d="M277.813,434.896c0.115,1.257,0.169,1.885,0.278,3.148c-0.349,4.197-0.523,6.297-0.871,10.499
			c-0.715-0.104-1.075-0.161-1.792-0.268c0.05-0.738,0.07-1.104,0.133-1.842c0.119,0.015,0.181,0.024,0.301,0.042
			c0.386-4.641,0.572-6.96,0.963-11.588c0.203-3.311,0.303-4.963,0.506-8.267c0.034,0.004,0.045,0.003,0.068,0.006
			C277.573,429.917,277.647,431.572,277.813,434.896z M278.489,422.637c0.492,0.028,0.73,0.041,1.218,0.067
			c0.487,5.377,0.732,8.092,1.218,13.559c-0.084,0.446-0.122,0.671-0.212,1.111c-0.296,2.147-0.457,3.223-0.751,5.371
			c-0.069-2.211-0.096-3.312-0.155-5.509C279.277,431.34,279.015,428.42,278.489,422.637z M284.271,427.188
			c-0.236,3.306-0.365,4.955-0.611,8.267c-0.037,2.116-0.062,3.173-0.094,5.296c-0.607,3.132-0.904,4.697-1.511,7.816
			c-0.75-0.09-1.12-0.136-1.857-0.229c-0.067-0.764-0.099-1.144-0.159-1.906c0.264,0.033,0.4,0.046,0.658,0.075
			c0.691-3.581,1.036-5.378,1.729-8.978c0.174-0.931,0.27-1.396,0.442-2.324c0.537-3.202,0.811-4.807,1.345-8.021
			C284.229,427.184,284.241,427.188,284.271,427.188z M285.853,422.974c0.575,0.023,0.873,0.032,1.442,0.05
			c-0.233,10.604-0.364,15.935-0.6,26.653c-0.756-0.074-1.129-0.104-1.877-0.184c0.023-0.763,0.009-1.149,0.025-1.908
			c0.186,0.02,0.294,0.03,0.485,0.051C285.535,437.711,285.641,432.775,285.853,422.974z"/>
		<path fill="#A6A34D" d="M292.975,425.454c-0.274,5.367-0.419,8.051-0.683,13.435c-0.587-0.028-0.898-0.048-1.493-0.087
			c0.319-6.133,0.475-9.198,0.79-15.308c2.202,0.062,3.297,0.089,5.503,0.134c0.004-0.116,0.01-0.171,0.013-0.287
			c0.589,0.015,0.888,0.021,1.485,0.031c-0.049,0.89-0.063,1.331-0.103,2.222C296.284,425.549,295.177,425.519,292.975,425.454z
			 M295.852,448.421c0.008-0.151,0.013-0.231,0.022-0.387c0.587,0.03,0.878,0.046,1.476,0.076c-0.042,0.927-0.07,1.393-0.113,2.321
			c-2.999-0.141-4.484-0.232-7.469-0.475c0.032-0.771,0.059-1.157,0.091-1.924C292.246,448.216,293.45,448.295,295.852,448.421z
			 M295.1,441.306c0.01-0.133,0.006-0.202,0.011-0.337c0.588,0.027,0.898,0.043,1.491,0.067c-0.045,0.912-0.085,1.362-0.116,2.272
			c-1.763-0.078-2.642-0.124-4.396-0.232c-0.057,1.118-0.085,1.676-0.141,2.794c-0.596-0.04-0.887-0.062-1.487-0.105
			c0.095-1.884,0.136-2.82,0.235-4.704C292.449,441.173,293.335,441.22,295.1,441.306z"/>
		<path fill="#A6A34D" d="M304.085,443.549c-0.699-0.016-1.048-0.021-1.745-0.044c-0.478,2.832-0.721,4.251-1.198,7.081
			c-0.776-0.025-1.159-0.041-1.94-0.074c0.13-0.77,0.186-1.159,0.313-1.934c0.089,0.003,0.144,0.008,0.228,0.012
			c0.48-2.823,0.729-4.233,1.205-7.063c1.203,0.029,1.804,0.046,3.01,0.067c0.003-0.021,0.003-0.029,0.005-0.048
			C304.011,442.348,304.039,442.746,304.085,443.549z M303.169,426.643c0.152,3.502,0.226,5.256,0.374,8.763
			c-0.104,0.68-0.201,1.312-0.632,4.03c-0.688-0.016-1.023-0.021-1.714-0.046c0.271-1.604,0.409-2.411,0.685-4.021
			C302.394,431.879,302.656,430.133,303.169,426.643z M304.578,423.452c0.507,0.005,0.758,0.007,1.264,0.014
			c0.759,10.884,1.14,16.344,1.933,27.232c-0.781-0.002-1.16,0.002-1.938-0.014c-0.054-0.777-0.085-1.172-0.139-1.95
			c0.269,0.002,0.403,0.006,0.675,0.008C305.642,438.623,305.285,433.555,304.578,423.452z"/>
		<path fill="#A6A34D" d="M312.59,446.452c-0.6,0.007-0.896,0.01-1.502,0.013c0.427-9.183,0.642-13.781,1.065-22.97
			c0.588,0.003,0.893,0.008,1.494,0.01C313.224,432.688,313.011,437.281,312.59,446.452z M315.472,448.681
			c0.006-0.136,0.008-0.202,0.014-0.34c0.602-0.016,0.902-0.021,1.496-0.041c-0.032,0.907-0.06,1.364-0.09,2.273
			c-2.58,0.077-3.863,0.103-6.438,0.118c0.037-0.777,0.062-1.165,0.091-1.939C312.517,448.742,313.498,448.727,315.472,448.681z"/>
		<path fill="#A6A34D" d="M329.067,419.01c-0.272,6.649-0.401,9.965-0.682,16.584c-0.592,0.021-0.886,0.031-1.482,0.055
			c0.307-7.411,0.459-11.123,0.769-18.564c1.062,0.007,1.586,0.008,2.653,0.016c1.654,0.057,2.857,2.244,2.857,2.244
			c-0.037,0.021-0.9-0.332-1.459-0.336C330.664,419.008,330.127,419.01,329.067,419.01z M332.574,439.663
			c-0.043,0.034-0.585-0.164-0.888-0.146c-1.388,0.068-2.078,0.104-3.469,0.164c-0.089,2.491-0.152,3.737-0.236,6.226
			c-0.6,0.036-0.901,0.051-1.508,0.084c0.145-3.257,0.209-4.887,0.336-8.151c1.381-0.051,2.078-0.079,3.461-0.133
			C331.455,437.701,332.624,439.615,332.574,439.663z M335.892,444.338c-0.138,3.616-2.209,5.239-4.082,5.391
			c-2.399,0.196-3.596,0.285-5.992,0.435c0.023-0.761,0.046-1.146,0.078-1.908c1.78-0.105,2.692-0.158,4.488-0.29
			c0.487-0.034,1.071-0.312,1.508-0.438c0.935-0.279,1.642-1.349,1.951-2.105c0.145-0.352,0.584-1.673,0.622-2.838
			c0.034-0.917,0.054-1.369,0.097-2.283c0.022-0.749-0.263-2.18-0.263-2.18c0.066-0.054,1.729,2.407,1.677,3.941
			C335.95,442.974,335.928,443.429,335.892,444.338z M334.646,417.703c0.061-0.035,2.102,3.104,1.994,5.632
			c-0.154,3.741-0.229,5.604-0.383,9.335c-0.07,1.771-1.967,5.015-2.119,4.994c-0.102-0.018-1.134-1.218-1.139-1.302
			c-0.027-0.191,0.995-1.711,1.291-2.729c0.241-0.807,0.516-1.796,0.561-2.774c0.158-3.751,0.239-5.626,0.4-9.388
			C335.306,420.01,334.646,417.703,334.646,417.703z"/>
		<path fill="#A6A34D" d="M341.636,428.564c-0.218,6.067-0.33,9.091-0.543,15.11c-0.016,0.496,0.104,1.298,0.096,1.303
			c-0.116,0.12-1.584-1.49-1.537-3.009c0.22-6.063,0.339-9.104,0.567-15.213c0.009-0.37,0.032-0.824,0.154-1.109
			c0.344-0.967,1.178-1.814,2.159-2.238c0.027,0,0.037,0,0.066-0.003c1.107-0.007,1.928,1.837,1.926,1.846
			c-0.019,0.012-0.32-0.038-0.514-0.038C342.499,425.247,341.698,426.729,341.636,428.564z M339.608,446.818
			c0.021-0.025,1.324,0.499,2.138,0.409c0.644-0.067,1.248-0.382,1.739-0.589c1.218-0.517,1.756-1.818,1.98-2.394
			c0.33-0.867,0.584-1.881,0.616-2.864c0.2-5.88,0.3-8.833,0.515-14.771c0.032-1.031-0.524-2.914-0.524-2.914
			c0.047-0.041,2.012,2.659,1.944,4.664c-0.203,5.884-0.301,8.817-0.5,14.651c-0.096,2.739-1.545,5.521-4.319,5.85
			C341.505,449.065,339.608,446.818,339.608,446.818z"/>
		<path fill="#A6A34D" d="M352.719,441.773c-0.239-3.488-0.372-5.247-0.612-8.791c-0.315-3.872-0.472-5.826-0.787-9.771
			c0.516-0.004,0.779-0.003,1.303-0.005c0.378,4.933,0.568,7.368,0.965,12.182c-0.332,2.555-0.493,3.823-0.829,6.381
			C352.74,441.773,352.731,441.771,352.719,441.773z M357.255,433.977c-0.857,5.19-1.277,7.803-2.148,13.047
			c-0.879,0.131-1.312,0.198-2.199,0.319c-0.069-0.669-0.1-1.01-0.178-1.686c0.373-0.049,0.561-0.069,0.934-0.12
			c0.939-5.727,1.404-8.57,2.336-14.234c0.277-1.718,0.624-5.517,0.624-5.517c0.001,0,0.153,3.615,0.347,5.381
			C357.083,432.3,357.142,432.857,357.255,433.977z M357.921,423.395c0.502-0.002,0.756-0.006,1.252-0.004
			c0.43,4.409,0.641,6.583,1.076,10.871c0.027,0.323,0.057,0.492,0.083,0.818c-0.25,2.409-0.374,3.606-0.627,6.014
			c-0.015,0.002-0.017,0-0.033,0.002C358.953,434.186,358.61,430.634,357.921,423.395z M360.742,444.534
			c1.28-8.604,1.924-12.876,3.192-21.354c0.672,0.001,1.021,0.001,1.692,0.003c-1.377,9.012-2.06,13.557-3.44,22.731
			c-0.939,0.153-1.412,0.23-2.354,0.381c-0.065-0.639-0.101-0.958-0.17-1.603C360.103,444.632,360.312,444.601,360.742,444.534z"/>
		<path fill="#A6A34D" d="M369.49,441.377c-0.599,0.09-0.884,0.132-1.478,0.223c0.209-7.262,0.309-10.933,0.53-18.361
			c0.591,0.005,0.896,0.008,1.479,0.013C369.806,430.589,369.696,434.212,369.49,441.377z M372.405,442.654
			c0.003-0.101,0.003-0.148,0.005-0.25c0.593-0.104,0.893-0.156,1.485-0.26c-0.015,0.684-0.033,1.024-0.045,1.707
			c-2.541,0.482-3.83,0.716-6.382,1.17c0.021-0.614,0.037-0.922,0.04-1.539C369.468,443.163,370.453,442.994,372.405,442.654z"/>
	</g>
</g>
<image overflow="visible" enable-background="new    " width="1400" height="1174" xlink:href="../../../../../Applications/MAMP/htdocs/Abowlofoat/files/background.jpg"  transform="matrix(0.435 0 0 0.435 -1517.1255 -17.314)">
</image>
<circle fill="#FFFFFF" cx="-1221.619" cy="211.168" r="222.92"/>
</svg>
